# Blender 5.0.1
# www.blender.org
mtllib GraveTomb.mtl
o Grave1_Cube
v 0.602766 0.000000 1.219200
v 0.465752 0.228600 1.066567
v 0.602766 -0.000000 -1.219200
v 0.465752 0.228600 -1.066567
v 0.602766 0.152400 -1.219200
v 0.602766 0.152400 1.219200
v 0.071246 0.610042 0.632978
v 0.071246 0.610042 -0.632978
v 0.465752 0.292100 -1.066567
v 0.465752 0.292100 1.066567
v 0.145566 -0.000000 -1.219200
v 0.145566 0.152400 -1.219200
v 0.145566 0.000000 1.219200
v 0.145566 0.152400 1.219200
v 0.111313 0.228600 -1.066567
v 0.111313 0.228600 1.066567
v 0.387672 0.405958 -0.632978
v 0.387672 0.405958 0.632978
v 0.111313 0.292100 -1.066567
v 0.111313 0.292100 1.066567
v 0.111313 0.228600 -0.761767
v 0.111313 0.228600 0.761767
v 0.111313 0.292100 -0.761767
v 0.111313 0.292100 0.761767
v 0.465752 0.355600 -1.066567
v 0.465752 0.355600 1.066567
v 0.110209 0.600024 0.594804
v 0.110209 0.600024 -0.594804
v 0.362476 0.437322 -0.594804
v 0.362476 0.437322 0.594804
v 0.078129 0.620714 0.632978
v 0.078129 0.620714 -0.632978
v 0.394556 0.416631 -0.632978
v 0.394556 0.416631 0.632978
v 0.103326 0.589351 0.594804
v 0.103326 0.589351 -0.594804
v 0.355592 0.426649 -0.594804
v 0.355592 0.426649 0.594804
v -0.619609 0.000000 1.219200
v -0.482595 0.228600 1.066567
v -0.619609 -0.000000 -1.219200
v -0.482595 0.228600 -1.066567
v -0.619609 0.152400 -1.219200
v -0.619609 0.152400 1.219200
v -0.088089 0.610042 0.632978
v -0.088089 0.610042 -0.632978
v -0.482595 0.292100 -1.066567
v -0.482595 0.292100 1.066567
v -0.162409 -0.000000 -1.219200
v -0.162409 0.152400 -1.219200
v -0.162409 0.000000 1.219200
v -0.162409 0.152400 1.219200
v -0.128156 0.228600 -1.066567
v -0.128156 0.228600 1.066567
v -0.404516 0.405958 -0.632978
v -0.404516 0.405958 0.632978
v -0.128156 0.292100 -1.066567
v -0.128156 0.292100 1.066567
v -0.128156 0.228600 -0.761767
v -0.128156 0.228600 0.761767
v -0.128156 0.292100 -0.761767
v -0.128156 0.292100 0.761767
v -0.008422 0.661483 -1.066567
v -0.482595 0.355600 -1.066567
v -0.482595 0.355600 1.066567
v -0.127052 0.600024 0.594804
v -0.127052 0.600024 -0.594804
v -0.379319 0.437322 -0.594804
v -0.379319 0.437322 0.594804
v -0.094972 0.620714 0.632978
v -0.094972 0.620714 -0.632978
v -0.411399 0.416631 -0.632978
v -0.411399 0.416631 0.632978
v -0.120169 0.589351 0.594804
v -0.120169 0.589351 -0.594804
v -0.372435 0.426649 -0.594804
v -0.372435 0.426649 0.594804
v -0.008422 -0.000000 -1.219200
v -0.008422 0.152400 -1.219200
v -0.008422 0.000000 1.219200
v -0.008422 0.152400 1.219200
v -0.008422 0.228600 -1.066567
v -0.008422 0.228600 1.066567
v -0.008422 0.355600 1.066567
v -0.008422 0.292100 -1.066567
v -0.008422 0.292100 1.066567
v -0.008422 0.228600 -0.761767
v -0.008422 0.228600 0.761767
v -0.008422 0.292100 -0.761767
v -0.008422 0.292100 0.761767
v -0.008422 0.661483 1.066567
v -0.008422 0.355600 -1.066567
vn -0.0000 -0.0000 -1.0000
vn 1.0000 -0.0000 -0.0000
vn -0.0000 -1.0000 -0.0000
vn -0.0000 0.8947 -0.4467
vn 0.4860 0.8739 -0.0000
vn -0.0000 -0.0000 1.0000
vn -1.0000 -0.0000 -0.0000
vn -0.0000 0.8947 0.4467
vn -0.0000 1.0000 -0.0000
vn 0.5423 0.8402 -0.0000
vn 0.5421 0.8403 -0.0000
vn 0.5420 0.8404 -0.0000
vn 0.5420 0.8403 -0.0000
vn -0.8404 0.5420 -0.0000
vn 0.8404 -0.5420 -0.0000
vn -0.4860 0.8739 -0.0000
vn -0.5423 0.8402 -0.0000
vn -0.5421 0.8403 -0.0000
vn -0.5420 0.8404 -0.0000
vn -0.5420 0.8403 -0.0000
vn 0.8404 0.5420 -0.0000
vn -0.8404 -0.5420 -0.0000
vt 0.597158 0.982986
vt 0.597158 0.965163
vt 0.650629 0.965163
vt 0.650629 0.982986
vt 0.851485 0.874345
vt 0.828431 0.874345
vt 0.828431 0.505487
vt 0.851485 0.505487
vt 0.558890 0.786713
vt 0.505418 0.786713
vt 0.505418 0.501534
vt 0.558890 0.501534
vt 0.795110 0.528576
vt 0.795109 0.851256
vt 0.785504 0.851256
vt 0.785505 0.528576
vt 0.593152 0.945211
vt 0.634605 0.945211
vt 0.804715 0.851256
vt 0.804715 0.528576
vt 0.578622 0.843247
vt 0.634078 0.843247
vt 0.578622 0.879022
vt 0.592625 0.835821
vt 0.634078 0.835821
vt 0.994580 0.947785
vt 0.994580 0.992268
vt 0.991186 0.992268
vt 0.991186 0.947785
vt 0.592625 0.828394
vt 0.634078 0.828394
vt 0.842386 0.905442
vt 0.848831 0.905442
vt 0.848831 0.936382
vt 0.842386 0.936382
vt 0.593152 0.937784
vt 0.634605 0.937784
vt 0.830231 0.905442
vt 0.830231 0.936382
vt 0.634605 0.930358
vt 0.578622 0.835821
vt 0.596631 0.808443
vt 0.650102 0.808443
vt 0.579149 0.945211
vt 0.579149 0.965163
vt 0.576899 0.786713
vt 0.576899 0.501534
vt 0.650102 0.790619
vt 0.596631 0.790619
vt 0.579149 0.982986
vt 0.886979 0.943574
vt 0.874917 0.943574
vt 0.874917 0.937177
vt 0.886979 0.937177
vt 0.886979 0.974281
vt 0.874917 0.974281
vt 0.868519 0.906469
vt 0.874917 0.906469
vt 0.868519 0.937177
vt 0.703568 0.700301
vt 0.703568 0.552243
vt 0.714659 0.501534
vt 0.714660 0.751011
vt 0.659531 0.552243
vt 0.659532 0.700301
vt 0.648665 0.751011
vt 0.648665 0.501534
vt 0.976760 0.947785
vt 0.976760 0.992268
vt 0.973366 0.992268
vt 0.973366 0.947785
vt 0.994580 0.748122
vt 0.991186 0.748122
vt 0.994580 0.703638
vt 0.991186 0.703638
vt 0.994580 0.503976
vt 0.991186 0.503976
vt 0.976760 0.748122
vt 0.976760 0.703638
vt 0.976760 0.503976
vt 0.767255 0.822997
vt 0.767255 0.989753
vt 0.725176 0.989753
vt 0.725176 0.822997
vt 0.973366 0.748122
vt 0.973366 0.703638
vt 0.973366 0.503976
vt 0.842386 0.942828
vt 0.830231 0.942828
vt 0.886979 0.906469
vt 0.579149 0.937784
vt 0.579149 0.930358
vt 0.842386 0.973768
vt 0.830231 0.973768
vt 0.578622 0.828394
vt 0.578622 0.808443
vt 0.578622 0.790619
vt 0.579149 0.894584
vt 0.561139 0.982986
vt 0.507668 0.982986
vt 0.507668 0.965163
vt 0.561139 0.965163
vt 0.917835 0.505487
vt 0.917835 0.874345
vt 0.894782 0.874345
vt 0.894781 0.505487
vt 0.594908 0.786713
vt 0.594908 0.501534
vt 0.648379 0.501534
vt 0.648379 0.786713
vt 0.861460 0.851256
vt 0.851855 0.851256
vt 0.851855 0.528576
vt 0.861460 0.528576
vt 0.565145 0.945211
vt 0.523692 0.945211
vt 0.871066 0.528576
vt 0.871066 0.851256
vt 0.523165 0.843247
vt 0.564618 0.835821
vt 0.523165 0.835821
vt 0.945948 0.947993
vt 0.948971 0.947993
vt 0.948971 0.992570
vt 0.945948 0.992570
vt 0.564618 0.828394
vt 0.523165 0.828394
vt 0.818078 0.905442
vt 0.818078 0.936382
vt 0.811632 0.936382
vt 0.811632 0.905442
vt 0.523692 0.937784
vt 0.565145 0.937784
vt 0.523692 0.930358
vt 0.507141 0.808443
vt 0.560612 0.808443
vt 0.507141 0.790619
vt 0.560612 0.790619
vt 0.899042 0.937177
vt 0.899042 0.943574
vt 0.899042 0.974281
vt 0.905439 0.906469
vt 0.905439 0.937177
vt 0.899042 0.906469
vt 0.725750 0.700301
vt 0.725750 0.552244
vt 0.769787 0.552244
vt 0.780653 0.501534
vt 0.780653 0.751011
vt 0.769787 0.700301
vt 0.961821 0.947993
vt 0.964843 0.947993
vt 0.964843 0.992570
vt 0.961821 0.992570
vt 0.945948 0.747910
vt 0.948971 0.747910
vt 0.945948 0.703333
vt 0.948971 0.703333
vt 0.945948 0.503251
vt 0.948971 0.503251
vt 0.961821 0.747910
vt 0.961821 0.703333
vt 0.961821 0.503251
vt 0.673472 0.822579
vt 0.715552 0.822579
vt 0.715551 0.989335
vt 0.673472 0.989335
vt 0.964843 0.747910
vt 0.964843 0.703333
vt 0.964843 0.503251
vt 0.818078 0.942828
vt 0.818078 0.973768
s 1
usemtl Graves
f 11/1/1 12/2/1 5/3/1 3/4/1
f 3/5/2 5/6/2 6/7/2 1/8/2
f 11/9/3 3/10/3 1/11/3 13/12/3
f 10/13/2 9/14/2 25/15/2 26/16/2
f 15/17/4 4/18/4 5/3/4 12/2/4
f 4/19/5 2/20/5 6/7/5 5/6/5
f 84/21/6 26/22/6 91/23/6
f 20/24/6 10/25/6 26/22/6
f 7/26/6 18/27/6 34/28/6 31/29/6
f 16/30/6 2/31/6 10/25/6 20/24/6
f 2/20/2 4/19/2 9/14/2 10/13/2
f 19/32/7 15/33/7 21/34/7 23/35/7
f 4/18/1 15/17/1 19/36/1 9/37/1
f 85/38/3 19/32/3 23/35/3 89/39/3
f 9/37/1 19/36/1 25/40/1
f 86/41/6 20/24/6 26/22/6 84/21/6
f 2/31/8 16/30/8 14/42/8 6/43/8
f 82/44/4 15/17/4 12/2/4 79/45/4
f 78/46/3 11/9/3 13/12/3 80/47/3
f 1/48/6 6/43/6 14/42/6 13/49/6
f 78/50/1 79/45/1 12/2/1 11/1/1
f 88/51/6 22/52/6 24/53/6 90/54/6
f 83/55/9 16/56/9 22/52/9 88/51/9
f 16/57/7 20/58/7 24/53/7 22/59/7
f 7/60/10 8/61/10 63/62/11 91/63/11
f 17/64/12 18/65/12 26/66/13 25/67/13
f 18/65/12 7/60/10 91/63/11 26/66/13
f 8/61/10 17/64/12 25/67/13 63/62/11
f 27/68/1 30/69/1 38/70/1 35/71/1
f 8/72/14 7/26/14 31/29/14 32/73/14
f 17/74/1 8/72/1 32/73/1 33/75/1
f 18/76/15 17/74/15 33/75/15 34/77/15
f 27/68/12 28/78/12 32/73/12 31/29/12
f 29/79/12 30/80/12 34/77/12 33/75/12
f 30/69/12 27/68/12 31/29/12 34/28/12
f 28/78/12 29/79/12 33/75/12 32/73/12
f 38/81/12 37/82/12 36/83/12 35/84/12
f 28/78/15 27/68/15 35/71/15 36/85/15
f 29/79/6 28/78/6 36/85/6 37/86/6
f 30/80/14 29/79/14 37/86/14 38/87/14
f 21/88/1 87/89/1 89/39/1 23/35/1
f 20/58/3 86/90/3 90/54/3 24/53/3
f 19/36/1 85/91/1 92/92/1 25/40/1
f 15/93/9 82/94/9 87/89/9 21/88/9
f 16/30/8 83/95/8 81/96/8 14/42/8
f 13/49/6 14/42/6 81/96/6 80/97/6
f 25/40/1 92/92/1 63/98/1
f 49/99/1 41/100/1 43/101/1 50/102/1
f 41/103/7 39/104/7 44/105/7 43/106/7
f 49/107/3 51/108/3 39/109/3 41/110/3
f 48/111/7 65/112/7 64/113/7 47/114/7
f 53/115/4 50/102/4 43/101/4 42/116/4
f 42/117/16 43/106/16 44/105/16 40/118/16
f 84/21/6 91/23/6 65/119/6
f 58/120/6 65/119/6 48/121/6
f 45/122/6 70/123/6 73/124/6 56/125/6
f 54/126/6 58/120/6 48/121/6 40/127/6
f 40/118/7 48/111/7 47/114/7 42/117/7
f 57/128/2 61/129/2 59/130/2 53/131/2
f 42/116/1 47/132/1 57/133/1 53/115/1
f 85/38/3 89/39/3 61/129/3 57/128/3
f 47/132/1 64/134/1 57/133/1
f 86/41/6 84/21/6 65/119/6 58/120/6
f 40/127/8 44/135/8 52/136/8 54/126/8
f 82/44/4 79/45/4 50/102/4 53/115/4
f 78/46/3 80/47/3 51/108/3 49/107/3
f 39/137/6 51/138/6 52/136/6 44/135/6
f 78/50/1 49/99/1 50/102/1 79/45/1
f 88/51/6 90/54/6 62/139/6 60/140/6
f 83/55/9 88/51/9 60/140/9 54/141/9
f 54/142/2 60/143/2 62/139/2 58/144/2
f 45/145/17 91/63/18 63/62/18 46/146/17
f 55/147/19 64/148/20 65/149/20 56/150/19
f 56/150/19 65/149/20 91/63/18 45/145/17
f 46/146/17 63/62/18 64/148/20 55/147/19
f 66/151/1 74/152/1 77/153/1 69/154/1
f 46/155/21 71/156/21 70/123/21 45/122/21
f 55/157/1 72/158/1 71/156/1 46/155/1
f 56/159/22 73/160/22 72/158/22 55/157/22
f 66/151/19 70/123/19 71/156/19 67/161/19
f 68/162/19 72/158/19 73/160/19 69/163/19
f 69/154/19 73/124/19 70/123/19 66/151/19
f 67/161/19 71/156/19 72/158/19 68/162/19
f 77/164/19 74/165/19 75/166/19 76/167/19
f 67/161/22 75/168/22 74/152/22 66/151/22
f 68/162/6 76/169/6 75/168/6 67/161/6
f 69/163/21 77/170/21 76/169/21 68/162/21
f 59/171/1 61/129/1 89/39/1 87/89/1
f 58/144/3 62/139/3 90/54/3 86/90/3
f 57/133/1 64/134/1 92/92/1 85/91/1
f 53/172/9 59/171/9 87/89/9 82/94/9
f 54/126/8 52/136/8 81/96/8 83/95/8
f 51/138/6 80/97/6 81/96/6 52/136/6
f 64/134/1 63/98/1 92/92/1
