{
  "accessors": [
    {
      "bufferView": 2,
      "componentType": 5126,
      "count": 140,
      "max": [
        1.6011170148849487,
        1.542225956916809,
        0.24881170690059662
      ],
      "min": [
        -1.5581326484680176,
        -1.7267132997512817,
        -0.27056241035461426
      ],
      "type": "VEC3"
    },
    {
      "bufferView": 2,
      "byteOffset": 1680,
      "componentType": 5126,
      "count": 140,
      "type": "VEC3"
    },
    {
      "bufferView": 3,
      "componentType": 5126,
      "count": 140,
      "type": "VEC4"
    },
    {
      "bufferView": 1,
      "componentType": 5126,
      "count": 140,
      "type": "VEC2"
    },
    {
      "bufferView": 0,
      "componentType": 5125,
      "count": 282,
      "type": "SCALAR"
    },
    {
      "bufferView": 2,
      "byteOffset": 3360,
      "componentType": 5126,
      "count": 147,
      "max": [
        0.3267817199230194,
        1.2248743772506714,
        0.4683067798614502
      ],
      "min": [
        -0.19697082042694092,
        0.10830210894346237,
        0.10737672448158264
      ],
      "type": "VEC3"
    },
    {
      "bufferView": 2,
      "byteOffset": 5124,
      "componentType": 5126,
      "count": 147,
      "type": "VEC3"
    },
    {
      "bufferView": 3,
      "byteOffset": 2240,
      "componentType": 5126,
      "count": 147,
      "type": "VEC4"
    },
    {
      "bufferView": 1,
      "byteOffset": 1120,
      "componentType": 5126,
      "count": 147,
      "type": "VEC2"
    },
    {
      "bufferView": 0,
      "byteOffset": 1128,
      "componentType": 5125,
      "count": 576,
      "type": "SCALAR"
    },
    {
      "bufferView": 2,
      "byteOffset": 6888,
      "componentType": 5126,
      "count": 63,
      "max": [
        0.3225507140159607,
        1.4111272096633911,
        0.4761298596858978
      ],
      "min": [
        -0.0889422819018364,
        0.953877866268158,
        0.09941589832305908
      ],
      "type": "VEC3"
    },
    {
      "bufferView": 2,
      "byteOffset": 7644,
      "componentType": 5126,
      "count": 63,
      "type": "VEC3"
    },
    {
      "bufferView": 3,
      "byteOffset": 4592,
      "componentType": 5126,
      "count": 63,
      "type": "VEC4"
    },
    {
      "bufferView": 1,
      "byteOffset": 2296,
      "componentType": 5126,
      "count": 63,
      "type": "VEC2"
    },
    {
      "bufferView": 0,
      "byteOffset": 3432,
      "componentType": 5125,
      "count": 270,
      "type": "SCALAR"
    },
    {
      "bufferView": 2,
      "byteOffset": 8400,
      "componentType": 5126,
      "count": 2184,
      "max": [
        1.35137939453125,
        1.5131794214248657,
        0.5110093951225281
      ],
      "min": [
        -1.0629277229309082,
        -0.9071986675262451,
        -0.12549860775470734
      ],
      "type": "VEC3"
    },
    {
      "bufferView": 2,
      "byteOffset": 34608,
      "componentType": 5126,
      "count": 2184,
      "type": "VEC3"
    },
    {
      "bufferView": 3,
      "byteOffset": 5600,
      "componentType": 5126,
      "count": 2184,
      "type": "VEC4"
    },
    {
      "bufferView": 1,
      "byteOffset": 2800,
      "componentType": 5126,
      "count": 2184,
      "type": "VEC2"
    },
    {
      "bufferView": 0,
      "byteOffset": 4512,
      "componentType": 5125,
      "count": 9522,
      "type": "SCALAR"
    },
    {
      "bufferView": 2,
      "byteOffset": 60816,
      "componentType": 5126,
      "count": 226,
      "max": [
        0.31030985713005066,
        0.7648268342018127,
        0.468028724193573
      ],
      "min": [
        -0.18574178218841553,
        0.3951195478439331,
        0.023344160988926888
      ],
      "type": "VEC3"
    },
    {
      "bufferView": 2,
      "byteOffset": 63528,
      "componentType": 5126,
      "count": 226,
      "type": "VEC3"
    },
    {
      "bufferView": 3,
      "byteOffset": 40544,
      "componentType": 5126,
      "count": 226,
      "type": "VEC4"
    },
    {
      "bufferView": 1,
      "byteOffset": 20272,
      "componentType": 5126,
      "count": 226,
      "type": "VEC2"
    },
    {
      "bufferView": 0,
      "byteOffset": 42600,
      "componentType": 5125,
      "count": 648,
      "type": "SCALAR"
    },
    {
      "bufferView": 2,
      "byteOffset": 66240,
      "componentType": 5126,
      "count": 86,
      "max": [
        0.10912588238716125,
        0.49700018763542175,
        0.47444725036621094
      ],
      "min": [
        0.0006365582812577486,
        0.4073930084705353,
        0.417889803647995
      ],
      "type": "VEC3"
    },
    {
      "bufferView": 2,
      "byteOffset": 67272,
      "componentType": 5126,
      "count": 86,
      "type": "VEC3"
    },
    {
      "bufferView": 3,
      "byteOffset": 44160,
      "componentType": 5126,
      "count": 86,
      "type": "VEC4"
    },
    {
      "bufferView": 1,
      "byteOffset": 22080,
      "componentType": 5126,
      "count": 86,
      "type": "VEC2"
    },
    {
      "bufferView": 0,
      "byteOffset": 45192,
      "componentType": 5125,
      "count": 252,
      "type": "SCALAR"
    },
    {
      "bufferView": 2,
      "byteOffset": 68304,
      "componentType": 5126,
      "count": 89,
      "max": [
        0.2832028567790985,
        1.6832337379455566,
        0.42445963621139526
      ],
      "min": [
        -0.03775439038872719,
        1.2696647644042969,
        0.12825903296470642
      ],
      "type": "VEC3"
    },
    {
      "bufferView": 2,
      "byteOffset": 69372,
      "componentType": 5126,
      "count": 89,
      "type": "VEC3"
    },
    {
      "bufferView": 3,
      "byteOffset": 45536,
      "componentType": 5126,
      "count": 89,
      "type": "VEC4"
    },
    {
      "bufferView": 1,
      "byteOffset": 22768,
      "componentType": 5126,
      "count": 89,
      "type": "VEC2"
    },
    {
      "bufferView": 0,
      "byteOffset": 46200,
      "componentType": 5125,
      "count": 378,
      "type": "SCALAR"
    },
    {
      "bufferView": 2,
      "byteOffset": 70440,
      "componentType": 5126,
      "count": 263,
      "max": [
        0.43218281865119934,
        1.7250832319259644,
        0.5921878218650818
      ],
      "min": [
        -0.164011150598526,
        1.378678560256958,
        0.006279900204390287
      ],
      "type": "VEC3"
    },
    {
      "bufferView": 2,
      "byteOffset": 73596,
      "componentType": 5126,
      "count": 263,
      "type": "VEC3"
    },
    {
      "bufferView": 3,
      "byteOffset": 46960,
      "componentType": 5126,
      "count": 263,
      "type": "VEC4"
    },
    {
      "bufferView": 1,
      "byteOffset": 23480,
      "componentType": 5126,
      "count": 263,
      "type": "VEC2"
    },
    {
      "bufferView": 0,
      "byteOffset": 47712,
      "componentType": 5125,
      "count": 1008,
      "type": "SCALAR"
    },
    {
      "bufferView": 2,
      "byteOffset": 76752,
      "componentType": 5126,
      "count": 152,
      "max": [
        0.24527330696582794,
        1.4717375040054321,
        0.4308191239833832
      ],
      "min": [
        0.03924202919006348,
        1.4019455909729004,
        0.37983083724975586
      ],
      "type": "VEC3"
    },
    {
      "bufferView": 2,
      "byteOffset": 78576,
      "componentType": 5126,
      "count": 152,
      "type": "VEC3"
    },
    {
      "bufferView": 3,
      "byteOffset": 51168,
      "componentType": 5126,
      "count": 152,
      "type": "VEC4"
    },
    {
      "bufferView": 1,
      "byteOffset": 25584,
      "componentType": 5126,
      "count": 152,
      "type": "VEC2"
    },
    {
      "bufferView": 0,
      "byteOffset": 51744,
      "componentType": 5125,
      "count": 576,
      "type": "SCALAR"
    }
  ],
  "asset": {
    "generator": "fab-model-conversion",
    "version": "2.0"
  },
  "bufferViews": [
    {
      "buffer": 0,
      "byteLength": 54048,
      "target": 34963
    },
    {
      "buffer": 0,
      "byteLength": 26800,
      "byteOffset": 54048,
      "byteStride": 8,
      "target": 34962
    },
    {
      "buffer": 0,
      "byteLength": 80400,
      "byteOffset": 80848,
      "byteStride": 12,
      "target": 34962
    },
    {
      "buffer": 0,
      "byteLength": 53600,
      "byteOffset": 161248,
      "byteStride": 16,
      "target": 34962
    }
  ],
  "buffers": [
    {
      "byteLength": 214848,
      "uri": "scene.bin"
    }
  ],
  "extensionsUsed": [
    "KHR_materials_specular"
  ],
  "images": [
    {
      "uri": "textures/scarecrow_mat_baseColor.jpeg"
    },
    {
      "uri": "textures/scarecrow_mat_metallicRoughness.png"
    },
    {
      "uri": "textures/scarecrow_mat_normal.jpeg"
    },
    {
      "uri": "textures/scarecrow_mat_specular_f0.png"
    }
  ],
  "materials": [
    {
      "doubleSided": true,
      "extensions": {
        "KHR_materials_specular": {
          "specularColorFactor": [
            1.0,
            1.0,
            1.0
          ],
          "specularFactor": 1.0,
          "specularTexture": {
            "index": 3
          }
        }
      },
      "name": "scarecrow_mat",
      "normalTexture": {
        "index": 2
      },
      "pbrMetallicRoughness": {
        "baseColorTexture": {
          "index": 0
        },
        "metallicRoughnessTexture": {
          "index": 1
        }
      }
    }
  ],
  "meshes": [
    {
      "name": "scarecrow_stake_scarecrow_mat_0",
      "primitives": [
        {
          "attributes": {
            "NORMAL": 1,
            "POSITION": 0,
            "TANGENT": 2,
            "TEXCOORD_0": 3
          },
          "indices": 4,
          "material": 0,
          "mode": 4
        }
      ]
    },
    {
      "name": "sack_torso_scarecrow_mat_0",
      "primitives": [
        {
          "attributes": {
            "NORMAL": 6,
            "POSITION": 5,
            "TANGENT": 7,
            "TEXCOORD_0": 8
          },
          "indices": 9,
          "material": 0,
          "mode": 4
        }
      ]
    },
    {
      "name": "scarf_scarecrow_mat_0",
      "primitives": [
        {
          "attributes": {
            "NORMAL": 11,
            "POSITION": 10,
            "TANGENT": 12,
            "TEXCOORD_0": 13
          },
          "indices": 14,
          "material": 0,
          "mode": 4
        }
      ]
    },
    {
      "name": "coat_scarecrow_mat_0",
      "primitives": [
        {
          "attributes": {
            "NORMAL": 16,
            "POSITION": 15,
            "TANGENT": 17,
            "TEXCOORD_0": 18
          },
          "indices": 19,
          "material": 0,
          "mode": 4
        }
      ]
    },
    {
      "name": "belt_scarecrow_mat_0",
      "primitives": [
        {
          "attributes": {
            "NORMAL": 21,
            "POSITION": 20,
            "TANGENT": 22,
            "TEXCOORD_0": 23
          },
          "indices": 24,
          "material": 0,
          "mode": 4
        }
      ]
    },
    {
      "name": "belt_buckle_scarecrow_mat_0",
      "primitives": [
        {
          "attributes": {
            "NORMAL": 26,
            "POSITION": 25,
            "TANGENT": 27,
            "TEXCOORD_0": 28
          },
          "indices": 29,
          "material": 0,
          "mode": 4
        }
      ]
    },
    {
      "name": "sack_head_scarecrow_mat_0",
      "primitives": [
        {
          "attributes": {
            "NORMAL": 31,
            "POSITION": 30,
            "TANGENT": 32,
            "TEXCOORD_0": 33
          },
          "indices": 34,
          "material": 0,
          "mode": 4
        }
      ]
    },
    {
      "name": "hat_scarecrow_mat_0",
      "primitives": [
        {
          "attributes": {
            "NORMAL": 36,
            "POSITION": 35,
            "TANGENT": 37,
            "TEXCOORD_0": 38
          },
          "indices": 39,
          "material": 0,
          "mode": 4
        }
      ]
    },
    {
      "name": "buttons_eyes_scarecrow_mat_0",
      "primitives": [
        {
          "attributes": {
            "NORMAL": 41,
            "POSITION": 40,
            "TANGENT": 42,
            "TEXCOORD_0": 43
          },
          "indices": 44,
          "material": 0,
          "mode": 4
        }
      ]
    }
  ],
  "nodes": [
    {
      "children": [
        1
      ],
      "matrix": [
        1.0,
        0.0,
        0.0,
        0.0,
        0.0,
        2.220446049250313e-16,
        -1.0,
        0.0,
        0.0,
        1.0,
        2.220446049250313e-16,
        0.0,
        0.0,
        0.0,
        0.0,
        1.0
      ],
      "name": "Sketchfab_model"
    },
    {
      "children": [
        2
      ],
      "matrix": [
        0.009999999776482582,
        0.0,
        0.0,
        0.0,
        0.0,
        0.0,
        0.009999999776482582,
        0.0,
        0.0,
        -0.009999999776482582,
        0.0,
        0.0,
        0.0,
        0.0,
        0.0,
        1.0
      ],
      "name": "b95a2b893b864461a7fee83206579599.fbx"
    },
    {
      "children": [
        3
      ],
      "name": "RootNode"
    },
    {
      "children": [
        4,
        5,
        15
      ],
      "matrix": [
        1.0,
        0.0,
        0.0,
        0.0,
        0.0,
        1.0,
        0.0,
        0.0,
        0.0,
        0.0,
        1.0,
        0.0,
        0.0,
        1.2386506795883179,
        0.0,
        1.0
      ],
      "name": "scarecrow_stake"
    },
    {
      "mesh": 0,
      "name": "scarecrow_stake_scarecrow_mat_0"
    },
    {
      "children": [
        6,
        7,
        9
      ],
      "name": "sack_torso"
    },
    {
      "mesh": 1,
      "name": "sack_torso_scarecrow_mat_0"
    },
    {
      "children": [
        8
      ],
      "matrix": [
        0.9337598085403442,
        0.0,
        0.0,
        0.0,
        0.0,
        0.9337598085403442,
        0.0,
        0.0,
        0.0,
        0.0,
        0.9337598085403442,
        0.0,
        0.00805636215955019,
        0.07902468740940094,
        0.01881137676537037,
        1.0
      ],
      "name": "scarf"
    },
    {
      "mesh": 2,
      "name": "scarf_scarecrow_mat_0"
    },
    {
      "children": [
        10,
        11
      ],
      "name": "coat"
    },
    {
      "mesh": 3,
      "name": "coat_scarecrow_mat_0"
    },
    {
      "children": [
        12,
        13
      ],
      "name": "belt"
    },
    {
      "mesh": 4,
      "name": "belt_scarecrow_mat_0"
    },
    {
      "children": [
        14
      ],
      "name": "belt_buckle"
    },
    {
      "mesh": 5,
      "name": "belt_buckle_scarecrow_mat_0"
    },
    {
      "children": [
        16,
        17,
        19
      ],
      "name": "sack_head"
    },
    {
      "mesh": 6,
      "name": "sack_head_scarecrow_mat_0"
    },
    {
      "children": [
        18
      ],
      "name": "hat"
    },
    {
      "mesh": 7,
      "name": "hat_scarecrow_mat_0"
    },
    {
      "children": [
        20
      ],
      "name": "buttons_eyes"
    },
    {
      "mesh": 8,
      "name": "buttons_eyes_scarecrow_mat_0"
    }
  ],
  "samplers": [
    {
      "magFilter": 9729,
      "minFilter": 9987,
      "wrapS": 10497,
      "wrapT": 10497
    }
  ],
  "scene": 0,
  "scenes": [
    {
      "name": "Sketchfab_Scene",
      "nodes": [
        0
      ]
    }
  ],
  "textures": [
    {
      "sampler": 0,
      "source": 0
    },
    {
      "sampler": 0,
      "source": 1
    },
    {
      "sampler": 0,
      "source": 2
    },
    {
      "sampler": 0,
      "source": 3
    }
  ]
}
